<?xml version="1.0" encoding="utf-8"?>
<!-- Generated by IcoMoon.io -->
<!DOCTYPE svg PUBLIC "-//W3C//DTD SVG 1.1//EN" "http://www.w3.org/Graphics/SVG/1.1/DTD/svg11.dtd">
<svg version="1.1" xmlns="http://www.w3.org/2000/svg" xmlns:xlink="http://www.w3.org/1999/xlink" width="32" height="32" viewBox="0 0 32 32">
<path fill="#999" d="M16 31.767c8.708 0 15.767-7.059 15.767-15.767s-7.059-15.767-15.767-15.767c-8.708 0-15.767 7.059-15.767 15.767s7.059 15.767 15.767 15.767v0zM16 31.506c-8.564 0-15.506-6.942-15.506-15.506s6.942-15.506 15.506-15.506c8.564 0 15.506 6.942 15.506 15.506s-6.942 15.506-15.506 15.506v0z"></path>
<path fill="#999" d="M15.739 18.893c0 0.56 0.782 0.56 0.782 0v-8.878c0-0.56-0.782-0.56-0.782 0v8.878z"></path>
<path fill="#999" d="M11.331 14.646l4.703-4.503c0.091-0.095 0.258-0.282 0.249-0.272-0.017 0.018-0.046 0.040-0.165 0.040s-0.148-0.021-0.165-0.040c-0.009-0.010 0.157 0.177 0.236 0.259l4.769 4.517 0.538-0.568-4.755-4.503c-0.054-0.057-0.215-0.238-0.215-0.238-0.132-0.143-0.225-0.21-0.408-0.21s-0.275 0.068-0.408 0.21c0-0-0.161 0.181-0.229 0.252l-4.691 4.49 0.541 0.565z"></path>
<path fill="#999" d="M11.118 8.838h10.001v-0.782h-10.001v0.782z"></path>
<path fill="#999" d="M13.184 21.797v0.364h1.101c-0.016 0.187-0.036 0.369-0.068 0.545h-0.883v2.473h0.364v-2.125h1.574v2.114h0.369v-2.462h-1.044c0.031-0.177 0.052-0.358 0.068-0.545h1.148v-0.364h-2.629zM14.909 25.2l-0.255 0.239c0.395 0.322 0.701 0.623 0.93 0.904l0.27-0.275c-0.255-0.291-0.571-0.577-0.945-0.868v0zM14.28 23.361v0.925c-0.016 0.442-0.125 0.8-0.332 1.075-0.218 0.265-0.603 0.478-1.158 0.639l0.203 0.317c0.577-0.177 0.992-0.416 1.247-0.717 0.26-0.322 0.395-0.764 0.41-1.314v-0.925h-0.369zM11.932 26.27c0.296 0 0.447-0.156 0.447-0.462v-3.647h0.623v-0.364h-1.808v0.364h0.8v3.553c0 0.145-0.068 0.223-0.192 0.223-0.171 0-0.353-0.010-0.54-0.021l0.083 0.353h0.587zM17.081 22.634l-0.343 0.125c0.13 0.229 0.239 0.478 0.332 0.748h-0.701v0.364h2.603v-0.364h-0.629c0.135-0.234 0.255-0.499 0.364-0.795l-0.348-0.119c-0.104 0.322-0.234 0.629-0.384 0.914h-0.545c-0.104-0.343-0.223-0.634-0.348-0.873v0zM19.21 21.792v4.535h0.364v-4.192h0.93c-0.166 0.561-0.338 1.049-0.509 1.46 0.405 0.499 0.613 0.899 0.618 1.205-0.005 0.187-0.031 0.312-0.083 0.379-0.052 0.062-0.171 0.099-0.358 0.109-0.099 0-0.218-0.010-0.364-0.021l0.119 0.395c0.426 0 0.712-0.068 0.857-0.192 0.135-0.125 0.203-0.348 0.203-0.67-0.005-0.312-0.203-0.717-0.592-1.205 0.187-0.468 0.358-0.977 0.519-1.522v-0.281h-1.704zM16.468 22.078v0.364h2.468v-0.364h-1.060c-0.057-0.197-0.114-0.379-0.171-0.535l-0.384 0.068c0.068 0.14 0.13 0.296 0.192 0.468h-1.044zM18.732 24.343h-2.068v1.958h0.369v-0.291h1.33v0.291h0.369v-1.958zM17.034 25.657v-0.961h1.33v0.961h-1.33z"></path>
</svg>
